<svg version="1.2" xmlns="http://www.w3.org/2000/svg" viewBox="0 0 263 263" width="256" height="256">
	<title>Icon</title>
	<style>
		.s0 { fill: #fefefe } 
		.s1 { fill: #0066b2 } 
		.s2 { fill: #ec1c24 } 
		.s3 { fill: #00a550 } 
		.s4 { fill: #ffdc00 } 
		.s5 { fill: #000000 } 
	</style>
	<g id="Icon">
		<g id="&lt;Group&gt;">
			<path id="&lt;Compound Path&gt;" class="s0" d="m108.7 36.7c-2.4 0.8-10.4 3.6-11.2 10q-0.1 0.5-0.1 1 0 0.3 0.1 0.6c-1.1 0-2-0.1-2.7-0.1l-6.5-0.1-2.3 0.4c-2.9 0.4-10.4 1.7-10.6 9.5 0 0.5-0.1 2.5-0.1 2.5 0 4.6 1 9.7 2.7 14.2 0.5 1.4 1.3 2.4 1.8 3.2 0 0 0.4 0.5 0.5 0.6 0.9 3.9 2.6 7.1 4.5 9.9-5.3 0.6-10.6 1.5-15.9 3.1l1.1-0.2c-2.9 0.2-5.7 1.7-8.4 4.6l-0.3 0.3-0.2 0.3q-1.4 2-2.1 4c-10.9 3.2-19.9 5.9-27.1 8.3-6.5 2.1-19.2 7.6-19.8 7.8l-0.3 0.1c0 0-0.1 0.1-0.1 0.1-0.1 0.1-0.2 0.1-0.2 0.1-9.8 4-11.8 10.7-11.8 15.6 0 7.8 6 10 8.9 11 0.7 0.2 1.3 0.5 1.7 0.7 3.9 2.1 7.6 1.4 10.4 0.8l1.8-0.3c1.4-0.2 2.8-0.6 4.3-1.1 1.4 2.9 3.9 5.5 7.7 6.3 3.4 0.6 5.6 0 7.4-0.6 0.1 1 0.3 2 0.7 2.9 0.7 1.6 1.8 3.1 3.2 4.4-2.3 1.8-5.7 5.2-5.7 9.2q0 0.5 0.1 1.1c0 0 0.1 0.3 0.1 0.3 0.3 2.1 1.1 7.8 8.9 11q4.5 1.9 10.4 1.1 0.5 1.8 1.6 3.3c-2.2 1.1-2.7 1.5-3 1.7l-0.1 0.1c-1.5 1.2-3.5 3.2-5.1 5.6-0.7 1-2.6 4.3-2.6 8q-0.1 1 0.2 2.1c0.5 2.3 1.8 4.3 3.9 5.5 2.8 1.8 5.9 2 8.3 1.8 0.4 2.5 2.2 5.4 8 7l0.3 0.1c1.9 0.6 4.3 0.5 9.6 0.1l2.1-0.2c0.6 0 1.7-0.2 2.9-0.4 0 2.6 0.8 4.8 2.2 6.5l0.1 0.2c3.2 3.6 8.1 4.5 10.1 4.8 2.1 0.3 4.9-0.6 10.3-2.8l1.3-0.5c0.2-0.1 0.9-0.3 1.7-0.6 0.2 0.3 0.3 0.6 0.6 0.9 1.1 1.2 3.2 2.6 6.5 2.5 3-0.1 8.1-1.2 8.6-1.4h0.3l0.3-0.1c6.3-2.3 26.9-9.8 29.7-11.3h0.1c2.2-1.2 20.5-7 28.4-9.5l5.6-1.8c8.2-2.6 15.8-8.4 17.9-10.7l0.1-0.1c1.9-2 3-4.7 3.6-8.1q0-0.6 0-1.1c0-1.8-0.6-3.5-1.6-5.1 4.3-1.9 8.5-3.7 8.6-3.8 1.5-0.6 5.5-2.3 7.1-6 0.4-0.8 0.6-1.7 0.6-2.5 4.6-1.1 9.6-2.4 9.6-2.4 0.1 0 0.2-0.1 0.2-0.1 2.9-0.7 10.6-2.5 17.8-6 6.7-3.3 7.9-7.1 7.9-10.4q0-0.6 0-1.2v-0.3l-0.1 0.3q0.1-0.3 0.1-0.7c0-3.3-2.8-6.9-5.4-8.8q0-0.2 0-0.3c-1.6-1.9-4.1-2-5.2-2.1h0.1l-1.4-0.2c-1.9-0.4-3.9-0.7-8.1-0.6-0.1-1.3-0.3-2.5-0.7-3.7-2.6-7.6-9.3-13-17.1-13.8-4.9-0.6-8.7-0.4-12.8 0 3.5-4.1 7.1-8.8 8-11.5 0.9-2.4 2.4-13.1 2.5-14.1v-0.1-1.4c0-2.9-0.3-4.9-0.6-6.5 0-0.2-0.3-2.8-0.3-3.1-0.2-7.1-1.4-13.4-1.7-14.6l-2.3-11.7-7.1 9.6c-0.9 1.3-2.1 2.8-2.6 3.4-1.4 1.1-7.9 5.6-12.8 8.7-1.1-4.4-3.8-8.4-7.9-11.3l-0.2-0.2-0.2-0.1c-5.3-3.1-11.1-5.9-17.7-6-6.6-0.2-12.8 1.1-18.4 4-3.3 1.8-5.8 4.5-8 6.8-1.4 1.5-2.7 2.9-4.1 4l0.3-0.2q-1.8 1.2-3.4 2.6c-0.8-4.4-1.8-9.3-3.9-14.1-2.7-5.6-6.2-10.5-11.1-15.3-2.4-2.4-6.7-4.3-9.1-5.2l-0.3-0.1-1.5-0.5z"/>
		</g>
		<g id="&lt;Group&gt;">
			<g id="&lt;Group&gt;">
				<path id="&lt;Path&gt;" class="s0" d="m47 164.5c-0.2-1.8 2.1-4.4 4.5-6.1 2.5-1.7 6.5-3.5 9-4.3 2.4-0.8 4.1-1.4 5.4-1.8 7.9-2.7 25.6-8.9 26.3-9.2 0.8-0.4 40.9-13.5 44.4-14.2 3.3-0.7 17.7-7.1 19.2-8.4 1-0.9 30.2-4.2 34-2.4 3.7 1.9-1.2 14.6 5.5 12.7 6.7-1.8 27.6-5.1 31.4 0.9 3.7 6 0.7 9-2 10.1-2.5 1.1-51.1 13.2-51.1 13.2 0 0-69.2 18.7-71.8 19.1-2.1 0.4-16.4 4.8-21.8 6.6-1.5 0.5 0.2-0.1-2.6 0.8-3.7 1-3 0.5-4.7 0.2-3.6-0.7-6.4-3.2-6.7-6.6-0.3-3.4 5.4-5.3 4.9-5.3-0.4 0-10.6 5.2-17.9 2.2-5.5-2.2-5.7-5.6-6-7.5z"/>
				<path id="&lt;Path&gt;" class="s1" d="m72.5 182.9c0 0 37-11.4 41-12.9 4-1.5 47.3-13.5 50.3-14.1 3-0.6 33.5-10.1 37-11 3.5-0.9 26.5-7 26.5-7 0 0 7.4-1.8 14.8-2.2 7.4-0.3 7.6 0.6 10.3 0.8 2.7 0.1 1.1 0.7 2 1 0.7 0.2 4.1 3.6 3.9 5.3-0.2 1.6 1.6 4.4-5.2 7.7-6.7 3.3-14.1 5.1-16.8 5.7-2.7 0.6-15.8 4.1-15.8 4.1 0 0 3.2 1.5 2.2 3.7-1 2.2-4.5 3.4-4.5 3.4l-16.6 7.4c0 0 4.1 1.2 4.7 2.1 0.5 0.8 2 3 1.8 4.3-0.2 1.4-0.7 3.8-2.3 5.5-1.5 1.7-8.4 7.1-15.9 9.4-7.5 2.5-32.3 10.2-34.9 11.7-2.7 1.5-29 10.9-29 10.9 0 0-5 1.2-7.7 1.3-4.1 0.1-3.8-4.3-3.8-4.3 0 0-5.4 1.3-6.7 1.8-1.4 0.5-7.5 3.2-9.1 3-1.6-0.2-5-1-7-3.2-1.9-2.3-0.6-6.8 0.1-7.3 0.6-0.5 2.1-2.9 2.1-2.9 0 0-9.4 2.2-11.3 2.3-1.9 0.1-8.4 0.9-10 0.4-1.6-0.5-5.5-1.4-4.8-4.4 0.7-3.1 2.7-5.3 4.7-6.2 2.1-0.9-7.5 2.6-7.5 2.6 0 0-4.5 1.7-7.9-0.4-3.3-2.1-1.2-6.8 0.1-8.7 1.3-2 3.1-3.6 4.1-4.5 1.1-0.8 11.2-5.3 11.2-5.3z"/>
			</g>
			<path id="&lt;Path&gt;" class="s2" d="m14.1 121.2c0 0 13-5.6 19.3-7.6 14.4-4.7 32.2-9.9 38-11.6 5.6-1.7 22.8-6.9 37.3-11.3 11.6-3.5 21.6-6.5 22.7-6.8 2.5-0.6 52.4-16.3 54-14.3 1.7 1.8 6.8 6.4 6.5 13.2-0.3 6.7-12.7 23.2-14.8 24.3-2.2 1.1-39.2 8.4-39.2 8.4 0 0 19.1-7.6 20 0.3 0.8 7.8-14.8 10.6-15.6 11-0.8 0.5-31.1 10-53.7 17.3-15.1 4.8-24.8 8.6-25.7 8.7-2.4 0.2-6.7 3.5-10.9 1.9-2.8-1.2-6.5-4.4-4.8-8.4 1.6-4.1 5.1-4.8 5.1-4.8 0 0-2.3 0.7-7.1 1.6-4.9 0.8-5.7 2.6-9.7 1.9-4.1-0.8-5.1-5.7-4.9-7 0.3-1.4-5.7 1.4-8.7 1.7-3 0.4-6.2 1.8-9.2 0.1-2.9-1.6-8-1.6-8-7.3 0-8.7 8.8-10.8 9.4-11.3z"/>
			<path id="&lt;Path&gt;" class="s3" d="m193 82.1c0 0-0.6-2.2-0.6-2.2-0.4-1.8-1-4.1-1.1-5.1-0.4-4-2.6-7.5-6.3-10.2-4.7-2.7-9.8-5.2-15.3-5.3-5.8-0.2-11.1 0.9-15.9 3.4-2.6 1.4-4.7 3.7-6.8 5.9-1.4 1.5-2.9 3.1-4.5 4.4-2.1 1.4-3.9 3-5.7 4.5l-3.2 2.7c-0.1 0.1-0.4 0.2-0.5 0.2l-0.1-0.2c-0.7-2.4-1.1-4.9-1.6-7.3-0.8-4.5-1.7-9-3.7-13.4-2.4-5.1-5.5-9.5-10.1-13.9-2-2.1-7.1-4-7.3-4.1h-0.1-0.1c-0.3 0.1-7.2 2.2-7.7 5.8q-0.3 2.8 4.3 5.6c0 0 0.1 0.1 0.2 0.1-0.9 0.6-7.9 0.3-12.2 0.2l-6-0.1c-0.1 0-1.9 0.3-1.9 0.3-2.9 0.5-6.3 1-6.4 4.7q-0.1 1.2-0.1 2.4c0 4 0.8 8.4 2.4 12.4 0.2 0.8 0.7 1.4 1.1 2 0.5 0.6 0.9 1.2 1.1 1.8 1.6 6.7 5.5 11 9.7 15.6 0 0 0 0 0.1 0.1-0.3 0-0.5 0-0.5 0-7.9 0.8-16.1 1.5-23.8 3.8q-2.4 0.2-5.2 3.2c-1.3 1.7-1.8 3.2-1.8 4.7q-0.1 0.6-0.1 1.3c0 2.4 0.9 4.9 2.9 7.8 2.6 4.1 5.5 7.4 8.8 10.1 4.3 3.2 8.9 5.4 15 7.2 2.8 0.8 5-0.8 7.1-2.3 1.1-0.7 2.1-1.4 3.2-1.8-1.6 2.8-2.8 6.4-2.8 9.8 0 2.6 0.7 5.1 2.5 7.2 2 2.1 4.8 3.2 7.4 4 1.5 0.3 2.9 0.3 4.4 0.2l2.8 0.1c3.2-0.2 6.5-1.9 8.4-4.4 5.6-8.3 8.5-17.2 8.5-26.4q0-1.6-0.1-3.2c0-0.1 0.3-0.7 0.3-0.7 0 0 0.1-0.2 0.2-0.5 0.3 0.4 2.6 2.4 2.6 2.4 2.7 2.1 2.8 2.4 4.4 5.8l3.1 6.6c0.8 1.6 1.2 3.8 1.2 6.5 0 12.4-7.7 34.7-18.4 46.6-2.4 2.7-3.6 4.6-3.6 5.8q0 0.4 0.3 0.8c1.2 1.8 7.2-0.5 7.8-0.8h0.1l0.1-0.1c0.1-0.2 15.1-24 19.9-42.9 0.8-3.1 1.3-6.7 1.3-10.3 0-7.4-2.1-15.3-7.7-21.1-0.1 0-1.2-1-1.2-1-0.5-0.4-1-0.9-1.6-1.3 0.1-0.2 0.4-0.7 0.5-1 2.8 0.7 5.4 1.9 7.9 3 3 1.3 5.8 2.6 9 3.2 1.2 0.3 2 0.7 2.7 1.2 1.2 0.7 2.3 1.3 4.4 1.2l3.2-0.3c1.4-0.2 2.4-0.4 3.4 0.1q0.5 0.2 1.4-0.3c2.8-1.5 7.8-7.6 8.2-10.6q0-0.2 0-0.5c0-2.5-0.9-7.8-3.7-10-1.4-1.1-4.3-2.6-6.9-3.9-2-1-4.5-2.3-5-2.8 7.6-4.1 14.4-0.9 14.4-0.9 7.1 4.6 9.4 6.1 10.2 6.5 0.1 0 0 0.1 0.1 0.1 0 0 0-0.1 0-0.1 0.3 0.2 0.4 0.1 0.5 0.1l0.1-0.3-0.3-0.2c-0.3-0.2 0.3-1.3 0.7-2.2 1.1-2.3 2.7-5.7 2-9.7z"/>
			<path id="&lt;Path&gt;" class="s3" d="m177.2 95.5z"/>
			<path id="&lt;Path&gt;" class="s4" d="m237.8 128.7c-1.9-5.8-6.9-9.9-12.8-10.5-5.1-0.6-8.8-0.3-13.5 0.1l-3.1 0.3c-0.8 0-4.2 1.3-9 3.3-1.1 0.5-2.2 0.9-3.1 1.3 2.6-2.2 6.7-6.5 10.2-10.6 4.1-4.5 8.7-10.3 9.5-12.6 0.6-1.6 2.1-11.7 2.2-12.7q0-0.6 0-1.2c0-2.6-0.3-4.3-0.5-5.9l-0.4-3.3c-0.2-7.4-1.6-14-1.6-14l-0.1-0.7-0.4 0.6c0 0-2.4 3.3-3 4-0.7 0.6-10.5 7.4-16 10.7-8.7 5.2-12.7 12-14 14.2l-0.3 0.5c-0.8 1.4-1.7 3.4-2.6 5.4-0.9 1.9-1.7 3.7-2.2 4.5-0.9 1.2-1.8 3.9-2.5 5.9-0.4 0.9-0.7 1.7-0.8 1.9-0.5 0.6-0.8 1.8-1 3-0.1 0.7-0.3 1.4-0.5 1.9q-0.1-0.3-0.2-0.7c-0.1-0.1-0.8-2.6-5.5-11.4-4.4-8.1-5.1-8.1-13.3-7.4l-3.1 0.3c-9 0.7-15.7 5.3-19.3 7.8l-1.7 1.2c-1.8 1.1-5.5 6.2-9.7 12.2l-4.8 6.7 0.6-0.1c1.2-0.1 2.2 0 3.3 0.2 1.2 0.2 2.4 0.3 3.7 0.1-0.1 0.4-0.2 0.7-0.2 1.1 0 1.7 0.9 3.4 2.6 4.8 2.1 2 4.1 3.3 6.7 4.1 0.3 0 0.5 0.4 0.7 0.9 0.2 0.4 0.4 0.9 0.8 1.2l0.2 0.1 0.1-0.1c0.4-0.2 0.5-1 0.7-8.3 0.1-1.5 0.1-3 0.2-3.2 1.5-5 5.4-8.1 10.6-8.7 1.9-0.2 7.5 0.5 8.3 4.6 0 0.1 1.1 2.5 1.7 3.1 0 0 1.8 5.2 1.8 5.2 1.1 3.3 2 5.8 3.9 9.9 0.3 0.4 0.3 1 0.3 1.5l0.1 0.8q0.2 0.7 0.2 1.4c0 1.6-0.6 3.4-1.5 5.2-0.8 1.4-2.4 3.4-3.7 3.7-3.1 0.5-3.9 0-5.9-1.2l-1.8-1.2c-1.3-0.7-2.5-6.4-2.9-8.5 0.4-4.3 1-11.7 0.3-12.3-0.4-0.4-1.3 0.3-6.3 5-3.1 2.8-6.9 6.4-10.1 8.8-4.5 3.4-6.7 7.6-8.4 10.6-0.7 1.4-1.3 2.5-1.9 3.2-0.8 0.9-0.5 2.1-0.2 3.3l0.3 1.2c0.5 2.8 2.3 4.9 3.9 7l0.3 0.4c1.2 1.6 4.5 5.6 4.5 5.7 0.1 0 5.7 5.3 10.3 1.4 6.4-2.1 9.5-4 9.6-4.1 2.3-1.1 4.8-2.3 6-2.7-2.1 2-6.2 7.4-7.6 11.8-1.5 4.5-4.5 11.7-5.2 13.3l-0.8 1.5c-1.5 3-5.1 9.9-6 10.9-1.1 1.2-1.6 1.9-0.8 3.1q0.3 0.3 0.6 0.4c0.4 0 0.7-0.3 1.1-0.7 0.4-0.4 0.9-0.9 1.5-1.2 1-0.5 6-5.2 11.4-10.1 4.2-4 8.6-8.1 10.1-9.2 2.9-2.3 5.2-4.5 8-7.4l0.8-0.7c0 0 7.4-7.6 8.5-8.7 0.9 0.5 5.6 3.4 9.3 4.6 2.7 0.5 5.8 0.9 9.1 0 5.9-1.7 14.8-8.3 21.2-13.4l0.4-0.3-0.5-0.2c-1.1-0.5-2.5-0.1-4.2 0.5-2.2 0.7-4.9 1.6-8.4 1-5-0.8-6.9-1.5-8.2-2l-0.9-0.4c0 0-0.6-0.1-0.6-0.1-3.4-1.1-6.9-2.2-9-5.2q0 0 0-0.1c0-0.3 0.1-0.6 0.2-1l0.2-0.9c0.5-1.7 1.8-2.9 3.1-4.1l1.2-1.1c2.4-2.9 4.6-4.8 7.1-5.9 2.1-1 5.3-2.4 9-2.7h2.2c2.4 0 4.7-0.1 7.1 0.3 1.8 0.2 2.3 2.1 2.7 3.9l0.2 0.5c0 1.2-0.2 2.8-0.8 4.1-0.4 0.4-5.7 1-8.8 1.3-4.4 0.4-4.4 0.5-4.4 0.8l-0.1 0.1 0.1 0.1c1.2 1.9 5.3 2.7 7.6 3 6.5 1 15.4 0.3 18.4-2.2 3.9-3.6 6.8-7.5 8.3-11.2 1.8-4.8 2.2-8.5 1.2-11.3z"/>
			<g id="&lt;Group&gt;">
				<path id="&lt;Path&gt;" class="s5" d="m70.9 169.8c-0.4 0-10.6 5.2-17.9 2.2-5.5-2.2-5.7-5.6-6-7.5-0.2-1.2 0.8-2.8 2.2-4.2-2.2 1.7-4.3 4.1-4 5.8 0.3 1.9 0.4 5.3 5.9 7.5 5.6 2.3 13-0.2 16.3-1.5 1.5-1.5 3.8-2.3 3.5-2.3z"/>
				<path id="&lt;Path&gt;" class="s5" d="m78.6 181c-1.9 0.5-4.6 0.9-5.9 0.7-3.6-0.7-6.4-3.2-6.7-6.7-0.1-0.9 0.3-1.7 0.9-2.4-1.4 0.9-2.9 2.3-2.7 4.1 0.3 3.4 3 5.9 6.7 6.6q0.3 0 0.5 0.1c0.7-0.3 1.1-0.5 1.1-0.5 0 0 2.4-0.7 6.1-1.9z"/>
			</g>
		</g>
	</g>
</svg>